<svg width="106" height="106" viewBox="0 0 106 106" fill="none" xmlns="http://www.w3.org/2000/svg">
    <mask id="mask0_590_1536" style="mask-type:alpha" maskUnits="userSpaceOnUse" x="0" y="30" width="76" height="76">
        <circle cx="38" cy="68" r="38" fill="#F4F4F4"/>
    </mask>
    <g mask="url(#mask0_590_1536)">
        <circle cx="38" cy="68" r="38" fill="#F4F4F4"/>
        <circle cx="37.6607" cy="105.66" r="29.5179" fill="white"/>
        <circle cx="37.6608" cy="59.5176" r="11.875" fill="white"/>
    </g>
    <path d="M74.1071 30.2143C74.1071 21.8694 80.8716 15.1071 89.2143 15.1071C80.8694 15.1071 74.1071 8.34265 74.1071 0C74.1071 8.34488 67.3426 15.1071 59 15.1071C67.3449 15.1071 74.1071 21.8716 74.1071 30.2143Z" fill="#FF5B00"/>
    <path d="M97.6072 47.0001C97.6072 42.3645 101.364 38.6072 106 38.6072C101.364 38.6072 97.6072 34.8499 97.6072 30.2144C97.6072 34.8499 93.8499 38.6072 89.2143 38.6072C93.8499 38.6072 97.6072 42.3645 97.6072 47.0001Z" fill="#FF5B00"/>
</svg>
