<svg width="375" height="800" viewBox="0 0 375 812" fill="none" xmlns="http://www.w3.org/2000/svg">
    <g clip-path="url(#clip0_1_18)">
        <g clip-path="url(#clip1_1_18)">
            <path d="M284.991 396.002C284.902 392.879 284.132 390.157 282.681 387.842C281.135 385.38 278.99 383.459 276.243 382.086C273.496 380.713 270.328 380.024 266.731 380.024H251.68V430.911H266.731C270.328 430.911 273.499 430.223 276.243 428.85C278.987 427.477 281.132 425.55 282.681 423.069C284.227 420.589 285 417.677 285 414.328C285 414.123 285 396.198 284.991 395.999V396.002ZM275.889 419.778C274.99 421.326 273.728 422.519 272.103 423.354C270.477 424.192 268.562 424.608 266.353 424.608H259.35V386.325H266.353C268.562 386.325 270.477 386.744 272.103 387.579C273.728 388.417 274.99 389.601 275.889 391.133C276.723 392.555 277.169 394.225 277.23 396.149C277.236 396.299 277.236 414.175 277.236 414.331C277.236 416.417 276.787 418.231 275.886 419.778H275.889Z" fill="white"/>
            <path d="M105.356 416.39C105.356 418.35 104.592 420.197 103.211 421.583C101.821 422.971 99.9782 423.736 98.0196 423.736C96.4033 423.736 94.8695 423.219 93.5862 422.24L89 428.272C91.6124 430.263 94.732 431.315 98.0196 431.315C101.998 431.315 105.741 429.764 108.567 426.941C111.381 424.118 112.93 420.372 112.93 416.39V380H105.356V416.39Z" fill="white"/>
            <path d="M240.458 416.393C240.458 420.442 237.167 423.736 233.122 423.736C229.076 423.736 225.786 420.442 225.786 416.393V396.476C225.786 391.035 221.612 386.576 216.286 386.325C213.533 386.193 210.915 387.172 208.923 389.074C206.958 390.949 205.831 393.583 205.831 396.302C205.831 396.858 205.818 397.421 205.797 397.975C205.32 410.175 198.855 424.421 182.194 424.421C180.996 424.421 179.792 424.345 178.616 424.195C161.53 422.023 158.933 405.465 158.606 398.449C158.572 397.739 158.557 397.017 158.557 396.302C158.557 393.586 157.429 390.952 155.465 389.074C153.473 387.172 150.857 386.193 148.101 386.325C142.773 386.576 138.602 391.035 138.602 396.476V416.39C138.602 420.439 135.311 423.733 131.266 423.733C127.22 423.733 123.93 420.439 123.93 416.39V380H116.355V416.39C116.355 424.617 123.044 431.312 131.263 431.312C139.482 431.312 146.17 424.617 146.17 416.39V396.476C146.17 395.112 147.194 393.956 148.453 393.898C149.122 393.864 149.754 394.103 150.234 394.558C150.714 395.017 150.979 395.635 150.979 396.302C150.979 397.13 150.998 397.972 151.037 398.797C151.432 407.349 153.876 414.866 158.105 420.54C162.786 426.822 169.547 430.685 177.659 431.716C179.151 431.905 180.675 432 182.191 432C200.047 432 212.574 418.445 213.362 398.271C213.387 397.62 213.402 396.959 213.402 396.302C213.402 395.644 213.668 395.017 214.147 394.558C214.627 394.1 215.26 393.87 215.929 393.898C217.188 393.956 218.211 395.115 218.211 396.476V416.39C218.211 424.617 224.9 431.312 233.119 431.312C241.338 431.312 248.026 424.617 248.026 416.39V380H240.452V416.39L240.458 416.393Z" fill="white"/>
            <path d="M192.167 400.109C195.413 400.109 198.045 395.63 198.045 390.105C198.045 384.58 195.413 380.101 192.167 380.101C188.92 380.101 186.288 384.58 186.288 390.105C186.288 395.63 188.92 400.109 192.167 400.109Z" fill="white"/>
            <path d="M172.23 400.109C175.477 400.109 178.109 395.63 178.109 390.105C178.109 384.58 175.477 380.101 172.23 380.101C168.983 380.101 166.351 384.58 166.351 390.105C166.351 395.63 168.983 400.109 172.23 400.109Z" fill="white"/>
        </g>
    </g>
    <defs>
        <clipPath id="clip0_1_18">
            <rect width="375" height="812" fill="white"/>
        </clipPath>
        <clipPath id="clip1_1_18">
            <rect width="196" height="52" fill="white" transform="translate(89 380)"/>
        </clipPath>
    </defs>
</svg>
